<svg version="1.1" id="Layer_1" xmlns="http://www.w3.org/2000/svg" xmlns:xlink="http://www.w3.org/1999/xlink" x="0px" y="0px"
	 width="100%" viewBox="0 0 980 980" enable-background="new 0 0 980 980" xml:space="preserve">
<path fill="#FFFFFF" opacity="1.000000" stroke="none" 
	d="
M526.000000,981.000000 
	C350.666656,981.000000 175.833328,981.000000 1.000000,981.000000 
	C1.000000,654.333313 1.000000,327.666656 1.000000,1.000000 
	C327.666656,1.000000 654.333313,1.000000 981.000000,1.000000 
	C981.000000,327.666656 981.000000,654.333313 981.000000,981.000000 
	C829.500000,981.000000 678.000000,981.000000 526.000000,981.000000 
M138.233566,639.499878 
	C138.235153,674.660767 138.189774,709.821716 138.251846,744.982544 
	C138.310974,778.475830 162.944656,802.968140 196.444824,802.968323 
	C392.915039,802.969421 589.385254,802.963989 785.855469,802.976318 
	C818.908081,802.978333 843.741638,778.322327 843.747986,745.193604 
	C843.780334,575.552673 843.783081,405.911713 843.748230,236.270752 
	C843.741577,203.828506 818.739563,179.029861 786.326233,179.030746 
	C590.022644,179.036133 393.719086,179.034729 197.415497,179.031555 
	C162.537949,179.030991 138.234436,203.259293 138.234085,238.060577 
	C138.232758,371.540344 138.233551,505.020111 138.233566,639.499878 
z"/>
<path fill="#040404" opacity="1.000000" stroke="none" 
	d="
M138.233566,638.999878 
	C138.233551,505.020111 138.232758,371.540344 138.234085,238.060577 
	C138.234436,203.259293 162.537949,179.030991 197.415497,179.031555 
	C393.719086,179.034729 590.022644,179.036133 786.326233,179.030746 
	C818.739563,179.029861 843.741577,203.828506 843.748230,236.270752 
	C843.783081,405.911713 843.780334,575.552673 843.747986,745.193604 
	C843.741638,778.322327 818.908081,802.978333 785.855469,802.976318 
	C589.385254,802.963989 392.915039,802.969421 196.444824,802.968323 
	C162.944656,802.968140 138.310974,778.475830 138.251846,744.982544 
	C138.189774,709.821716 138.235153,674.660767 138.233566,638.999878 
M172.694504,674.499817 
	C172.690872,697.829224 172.762100,721.159058 172.646591,744.487915 
	C172.600647,753.767639 175.814407,761.445740 184.163971,765.617065 
	C188.417648,767.742126 193.733963,768.573914 198.570984,768.577515 
	C393.374481,768.723938 588.178101,768.708740 782.981750,768.713745 
	C783.648315,768.713745 784.315063,768.717468 784.981445,768.705017 
	C800.544312,768.413513 809.304810,759.529541 809.305542,743.934570 
	C809.313538,575.460266 809.313965,406.985962 809.301636,238.511642 
	C809.300415,221.966217 800.524414,213.309525 783.924866,213.309738 
	C590.787659,213.312317 397.650421,213.311371 204.513214,213.313400 
	C201.180618,213.313446 197.839737,213.192200 194.516937,213.379654 
	C184.053604,213.969925 175.609512,220.538635 173.426666,230.136429 
	C172.662903,233.494568 172.723450,237.082626 172.722687,240.565750 
	C172.690826,384.877075 172.694916,529.188416 172.694504,674.499817 
z"/>
<path fill="#FEFEFE" opacity="1.000000" stroke="none" 
	d="
M172.694489,673.999756 
	C172.694916,529.188416 172.690826,384.877075 172.722687,240.565750 
	C172.723450,237.082626 172.662903,233.494568 173.426666,230.136429 
	C175.609512,220.538635 184.053604,213.969925 194.516937,213.379654 
	C197.839737,213.192200 201.180618,213.313446 204.513214,213.313400 
	C397.650421,213.311371 590.787659,213.312317 783.924866,213.309738 
	C800.524414,213.309525 809.300415,221.966217 809.301636,238.511642 
	C809.313965,406.985962 809.313538,575.460266 809.305542,743.934570 
	C809.304810,759.529541 800.544312,768.413513 784.981445,768.705017 
	C784.315063,768.717468 783.648315,768.713745 782.981750,768.713745 
	C588.178101,768.708740 393.374481,768.723938 198.570984,768.577515 
	C193.733963,768.573914 188.417648,767.742126 184.163971,765.617065 
	C175.814407,761.445740 172.600647,753.767639 172.646591,744.487915 
	C172.762100,721.159058 172.690872,697.829224 172.694489,673.999756 
M379.500000,413.042999 
	C345.176422,413.043030 310.852844,413.034454 276.529266,413.046539 
	C257.871124,413.053101 245.154449,425.771606 245.148575,444.469849 
	C245.131393,499.121094 245.127731,553.772339 245.146439,608.423584 
	C245.153183,628.130005 257.642822,640.646179 277.256378,640.647156 
	C414.217712,640.653687 551.179077,640.653809 688.140381,640.649658 
	C709.234314,640.648987 721.174255,628.642395 721.177063,607.423279 
	C721.184082,553.438538 721.181152,499.453766 721.169434,445.469025 
	C721.165039,425.322021 708.935608,413.041138 688.912903,413.041046 
	C586.108582,413.040558 483.304291,413.042145 379.500000,413.042999 
M393.317108,304.829529 
	C386.902924,313.005280 386.195282,321.322754 391.286285,328.700653 
	C395.853119,335.319000 404.273010,338.279572 412.038330,335.898956 
	C419.007202,333.762451 422.973083,328.672577 425.144012,321.797241 
	C440.813141,321.797241 456.300873,321.710358 471.784515,321.923279 
	C473.447021,321.946136 475.371948,323.422211 476.689545,324.717957 
	C486.667389,334.530426 496.599640,344.392395 506.368256,354.412292 
	C509.002502,357.114319 511.671844,358.465271 515.535400,358.267242 
	C521.624939,357.955170 527.742249,358.184265 533.792542,358.184265 
	C534.095093,360.404602 534.311890,361.995850 534.525208,363.561829 
	C542.879028,363.561829 550.918274,363.561829 559.083740,363.561829 
	C559.083740,357.243622 559.083740,351.278687 559.083740,345.122620 
	C550.828613,345.122620 542.753601,345.122620 534.516235,345.122620 
	C534.228516,347.118713 533.975952,348.871094 533.734558,350.545624 
	C533.170837,350.657166 532.846252,350.767914 532.518066,350.779694 
	C514.163818,351.438049 514.208191,351.392120 501.030060,338.396271 
	C495.788239,333.226959 490.300690,328.306793 484.925018,323.273224 
	C485.269104,322.880768 485.613159,322.488281 485.957214,322.095825 
	C515.654053,322.095825 545.350891,322.095825 575.055542,322.095825 
	C575.272095,324.300049 575.458618,326.198181 575.709900,328.755432 
	C582.076660,325.065674 587.879883,321.702515 594.487000,317.873444 
	C587.795410,313.998322 581.943237,310.609283 575.588013,306.928925 
	C575.367188,309.972076 575.227234,311.901703 575.091675,313.769775 
	C534.993896,313.769775 495.182526,313.769775 453.835938,313.769775 
	C458.720917,309.172699 463.179779,305.977020 466.345154,301.800964 
	C474.260010,291.358917 484.128113,286.566010 497.232849,288.885803 
	C499.171692,289.228973 501.294159,288.610840 503.202362,289.028381 
	C504.898102,289.399445 506.861969,290.215332 507.929413,291.487640 
	C511.771820,296.067505 516.390503,297.775970 521.607422,296.018951 
	C526.310608,294.435028 529.403748,290.020569 529.374146,284.934631 
	C529.345154,279.952728 526.042297,275.415192 521.402954,273.983643 
	C516.129333,272.356354 511.643646,274.120941 507.803406,278.781647 
	C506.738373,280.074219 504.705139,281.213226 503.069824,281.279419 
	C496.248810,281.555573 489.400055,281.620514 482.581573,281.314941 
	C478.242249,281.120422 475.073608,282.393433 472.034119,285.575500 
	C463.637756,294.365845 454.956848,302.887512 446.263580,311.387695 
	C444.951935,312.670197 443.015930,313.945496 441.292633,314.058014 
	C435.992737,314.404053 430.655823,314.184082 425.465057,314.184082 
	C417.574005,298.430725 406.056183,294.931427 393.317108,304.829529 
z"/>
<path fill="#090909" opacity="1.000000" stroke="none" 
	d="
M380.000000,413.042999 
	C483.304291,413.042145 586.108582,413.040558 688.912903,413.041046 
	C708.935608,413.041138 721.165039,425.322021 721.169434,445.469025 
	C721.181152,499.453766 721.184082,553.438538 721.177063,607.423279 
	C721.174255,628.642395 709.234314,640.648987 688.140381,640.649658 
	C551.179077,640.653809 414.217712,640.653687 277.256378,640.647156 
	C257.642822,640.646179 245.153183,628.130005 245.146439,608.423584 
	C245.127731,553.772339 245.131393,499.121094 245.148575,444.469849 
	C245.154449,425.771606 257.871124,413.053101 276.529266,413.046539 
	C310.852844,413.034454 345.176422,413.043030 380.000000,413.042999 
M385.500031,427.853577 
	C349.835663,427.853363 314.171326,427.849365 278.506958,427.854889 
	C265.374603,427.856934 259.984772,433.223419 259.984436,446.284943 
	C259.983093,500.115143 259.986542,553.945374 259.987762,607.775574 
	C259.988037,620.135193 265.655212,625.900940 277.880707,625.901306 
	C414.706085,625.905945 551.531433,625.905151 688.356812,625.898315 
	C700.708435,625.897705 706.383362,620.209045 706.383850,607.902527 
	C706.386047,554.239014 706.388184,500.575439 706.387390,446.911896 
	C706.387146,433.031616 701.260986,427.856995 687.482544,427.856476 
	C587.155029,427.852509 486.827545,427.853882 385.500031,427.853577 
z"/>
<path fill="#0D0D0D" opacity="1.000000" stroke="none" 
	d="
M393.591675,304.596802 
	C406.056183,294.931427 417.574005,298.430725 425.465057,314.184082 
	C430.655823,314.184082 435.992737,314.404053 441.292633,314.058014 
	C443.015930,313.945496 444.951935,312.670197 446.263580,311.387695 
	C454.956848,302.887512 463.637756,294.365845 472.034119,285.575500 
	C475.073608,282.393433 478.242249,281.120422 482.581573,281.314941 
	C489.400055,281.620514 496.248810,281.555573 503.069824,281.279419 
	C504.705139,281.213226 506.738373,280.074219 507.803406,278.781647 
	C511.643646,274.120941 516.129333,272.356354 521.402954,273.983643 
	C526.042297,275.415192 529.345154,279.952728 529.374146,284.934631 
	C529.403748,290.020569 526.310608,294.435028 521.607422,296.018951 
	C516.390503,297.775970 511.771820,296.067505 507.929413,291.487640 
	C506.861969,290.215332 504.898102,289.399445 503.202362,289.028381 
	C501.294159,288.610840 499.171692,289.228973 497.232849,288.885803 
	C484.128113,286.566010 474.260010,291.358917 466.345154,301.800964 
	C463.179779,305.977020 458.720917,309.172699 453.835938,313.769775 
	C495.182526,313.769775 534.993896,313.769775 575.091675,313.769775 
	C575.227234,311.901703 575.367188,309.972076 575.588013,306.928925 
	C581.943237,310.609283 587.795410,313.998322 594.487000,317.873444 
	C587.879883,321.702515 582.076660,325.065674 575.709900,328.755432 
	C575.458618,326.198181 575.272095,324.300049 575.055542,322.095825 
	C545.350891,322.095825 515.654053,322.095825 485.957214,322.095825 
	C485.613159,322.488281 485.269104,322.880768 484.925018,323.273224 
	C490.300690,328.306793 495.788239,333.226959 501.030060,338.396271 
	C514.208191,351.392120 514.163818,351.438049 532.518066,350.779694 
	C532.846252,350.767914 533.170837,350.657166 533.734558,350.545624 
	C533.975952,348.871094 534.228516,347.118713 534.516235,345.122620 
	C542.753601,345.122620 550.828613,345.122620 559.083740,345.122620 
	C559.083740,351.278687 559.083740,357.243622 559.083740,363.561829 
	C550.918274,363.561829 542.879028,363.561829 534.525208,363.561829 
	C534.311890,361.995850 534.095093,360.404602 533.792542,358.184265 
	C527.742249,358.184265 521.624939,357.955170 515.535400,358.267242 
	C511.671844,358.465271 509.002502,357.114319 506.368256,354.412292 
	C496.599640,344.392395 486.667389,334.530426 476.689545,324.717957 
	C475.371948,323.422211 473.447021,321.946136 471.784515,321.923279 
	C456.300873,321.710358 440.813141,321.797241 425.144012,321.797241 
	C422.973083,328.672577 419.007202,333.762451 412.038330,335.898956 
	C404.273010,338.279572 395.853119,335.319000 391.286285,328.700653 
	C386.195282,321.322754 386.902924,313.005280 393.591675,304.596802 
z"/>
<path fill="#F7F7F7" opacity="1.000000" stroke="none" 
	d="
M386.000061,427.853577 
	C486.827545,427.853882 587.155029,427.852509 687.482544,427.856476 
	C701.260986,427.856995 706.387146,433.031616 706.387390,446.911896 
	C706.388184,500.575439 706.386047,554.239014 706.383850,607.902527 
	C706.383362,620.209045 700.708435,625.897705 688.356812,625.898315 
	C551.531433,625.905151 414.706085,625.905945 277.880707,625.901306 
	C265.655212,625.900940 259.988037,620.135193 259.987762,607.775574 
	C259.986542,553.945374 259.983093,500.115143 259.984436,446.284943 
	C259.984772,433.223419 265.374603,427.856934 278.506958,427.854889 
	C314.171326,427.849365 349.835663,427.853363 386.000061,427.853577 
M272.103271,536.500000 
	C272.103333,557.325073 272.093292,578.150146 272.107147,598.975220 
	C272.115601,611.660034 277.665955,617.140259 290.455536,617.140381 
	C417.572784,617.141663 544.690063,617.142029 671.807312,617.141907 
	C674.306335,617.141907 676.808289,617.207336 679.303833,617.111816 
	C687.872498,616.783813 694.162537,610.714844 694.176941,602.126770 
	C694.261230,551.979797 694.202576,501.832611 694.201233,451.685516 
	C694.201050,446.870178 692.621216,442.281708 688.559692,440.076233 
	C684.678345,437.968567 679.862610,436.597351 675.454346,436.588959 
	C575.826782,436.399231 476.198730,436.441833 376.570770,436.441193 
	C347.915253,436.441010 319.259491,436.378937 290.604279,436.470978 
	C277.396027,436.513397 272.118591,441.935760 272.111511,455.031281 
	C272.096985,481.854187 272.104736,508.677094 272.103271,536.500000 
z"/>
<path fill="#0C0C0C" opacity="1.000000" stroke="none" 
	d="
M272.103271,536.000000 
	C272.104736,508.677094 272.096985,481.854187 272.111511,455.031281 
	C272.118591,441.935760 277.396027,436.513397 290.604279,436.470978 
	C319.259491,436.378937 347.915253,436.441010 376.570770,436.441193 
	C476.198730,436.441833 575.826782,436.399231 675.454346,436.588959 
	C679.862610,436.597351 684.678345,437.968567 688.559692,440.076233 
	C692.621216,442.281708 694.201050,446.870178 694.201233,451.685516 
	C694.202576,501.832611 694.261230,551.979797 694.176941,602.126770 
	C694.162537,610.714844 687.872498,616.783813 679.303833,617.111816 
	C676.808289,617.207336 674.306335,617.141907 671.807312,617.141907 
	C544.690063,617.142029 417.572784,617.141663 290.455536,617.140381 
	C277.665955,617.140259 272.115601,611.660034 272.107147,598.975220 
	C272.093292,578.150146 272.103333,557.325073 272.103271,536.000000 
M345.499908,607.221130 
	C455.484528,607.219910 565.469116,607.218872 675.453735,607.217224 
	C683.389099,607.217102 684.283997,606.325073 684.284485,598.275085 
	C684.287415,550.615112 684.282593,502.955109 684.280090,455.295135 
	C684.279663,447.326172 683.339661,446.369293 675.379395,446.368195 
	C605.222534,446.358704 535.065735,446.352692 464.908875,446.349823 
	C406.750336,446.347412 348.591766,446.346924 290.433228,446.356232 
	C283.554901,446.357330 282.036713,447.782318 282.034729,454.387329 
	C282.020233,502.880554 282.022034,551.373779 282.047058,599.867004 
	C282.050079,605.733582 283.571869,607.196228 289.507629,607.204407 
	C307.838348,607.229553 326.169128,607.218262 345.499908,607.221130 
z"/>
<path fill="#FDFDFD" opacity="1.000000" stroke="none" 
	d="
M344.999878,607.221130 
	C326.169128,607.218262 307.838348,607.229553 289.507629,607.204407 
	C283.571869,607.196228 282.050079,605.733582 282.047058,599.867004 
	C282.022034,551.373779 282.020233,502.880554 282.034729,454.387329 
	C282.036713,447.782318 283.554901,446.357330 290.433228,446.356232 
	C348.591766,446.346924 406.750336,446.347412 464.908875,446.349823 
	C535.065735,446.352692 605.222534,446.358704 675.379395,446.368195 
	C683.339661,446.369293 684.279663,447.326172 684.280090,455.295135 
	C684.282593,502.955109 684.287415,550.615112 684.284485,598.275085 
	C684.283997,606.325073 683.389099,607.217102 675.453735,607.217224 
	C565.469116,607.218872 455.484528,607.219910 344.999878,607.221130 
M475.500000,468.959900 
	C419.198212,468.960297 362.896454,468.956207 306.594666,468.966003 
	C298.397003,468.967438 296.887482,470.461670 296.869659,478.480652 
	C296.851532,486.642761 296.864197,494.804901 296.863770,502.967041 
	C296.863342,511.236176 298.474335,512.855957 306.775238,512.856506 
	C368.407593,512.860657 430.039978,512.861328 491.672333,512.859436 
	C547.974304,512.857727 604.276306,512.856628 660.578308,512.840637 
	C667.617249,512.838623 669.544800,510.898163 669.544983,504.032745 
	C669.545288,495.537476 669.561157,487.042206 669.554138,478.546936 
	C669.547424,470.500305 668.005005,468.966217 659.897949,468.965576 
	C598.765320,468.960602 537.632629,468.961090 475.500000,468.959900 
M338.133362,571.482544 
	C338.133362,575.243774 338.133362,579.004944 338.133362,582.791626 
	C359.149841,582.791626 379.514465,582.791626 399.991852,582.791626 
	C399.991852,574.070496 399.991852,565.662231 399.991852,557.132690 
	C379.316589,557.132690 358.854462,557.132690 338.133362,557.132690 
	C338.133362,561.885010 338.133362,566.189575 338.133362,571.482544 
M616.485596,583.091370 
	C620.256653,583.091370 624.027710,583.091370 627.832520,583.091370 
	C627.832520,573.992676 627.832520,565.455688 627.832520,557.069763 
	C607.153259,557.069763 586.817932,557.069763 566.443848,557.069763 
	C566.443848,565.888428 566.443848,574.283813 566.443848,583.091370 
	C582.980347,583.091370 599.235657,583.091370 616.485596,583.091370 
z"/>
<path fill="#030303" opacity="1.000000" stroke="none" 
	d="
M476.000000,468.959900 
	C537.632629,468.961090 598.765320,468.960602 659.897949,468.965576 
	C668.005005,468.966217 669.547424,470.500305 669.554138,478.546936 
	C669.561157,487.042206 669.545288,495.537476 669.544983,504.032745 
	C669.544800,510.898163 667.617249,512.838623 660.578308,512.840637 
	C604.276306,512.856628 547.974304,512.857727 491.672333,512.859436 
	C430.039978,512.861328 368.407593,512.860657 306.775238,512.856506 
	C298.474335,512.855957 296.863342,511.236176 296.863770,502.967041 
	C296.864197,494.804901 296.851532,486.642761 296.869659,478.480652 
	C296.887482,470.461670 298.397003,468.967438 306.594666,468.966003 
	C362.896454,468.956207 419.198212,468.960297 476.000000,468.959900 
z"/>
<path fill="#030303" opacity="1.000000" stroke="none" 
	d="
M338.133362,570.988342 
	C338.133362,566.189575 338.133362,561.885010 338.133362,557.132690 
	C358.854462,557.132690 379.316589,557.132690 399.991852,557.132690 
	C399.991852,565.662231 399.991852,574.070496 399.991852,582.791626 
	C379.514465,582.791626 359.149841,582.791626 338.133362,582.791626 
	C338.133362,579.004944 338.133362,575.243774 338.133362,570.988342 
z"/>
<path fill="#030303" opacity="1.000000" stroke="none" 
	d="
M615.988281,583.091370 
	C599.235657,583.091370 582.980347,583.091370 566.443848,583.091370 
	C566.443848,574.283813 566.443848,565.888428 566.443848,557.069763 
	C586.817932,557.069763 607.153259,557.069763 627.832520,557.069763 
	C627.832520,565.455688 627.832520,573.992676 627.832520,583.091370 
	C624.027710,583.091370 620.256653,583.091370 615.988281,583.091370 
z"/>
</svg>